%TF.GenerationSoftware,KiCad,Pcbnew,9.0.3*%
%TF.CreationDate,2026-04-02T18:02:35+01:00*%
%TF.ProjectId,tuxtag-pcb,74757874-6167-42d7-9063-622e6b696361,rev?*%
%TF.SameCoordinates,Original*%
%TF.FileFunction,Copper,L2,Bot*%
%TF.FilePolarity,Positive*%
%FSLAX46Y46*%
G04 Gerber Fmt 4.6, Leading zero omitted, Abs format (unit mm)*
G04 Created by KiCad (PCBNEW 9.0.3) date 2026-04-02 18:02:35*
%MOMM*%
%LPD*%
G01*
G04 APERTURE LIST*
G04 Aperture macros list*
%AMRoundRect*
0 Rectangle with rounded corners*
0 $1 Rounding radius*
0 $2 $3 $4 $5 $6 $7 $8 $9 X,Y pos of 4 corners*
0 Add a 4 corners polygon primitive as box body*
4,1,4,$2,$3,$4,$5,$6,$7,$8,$9,$2,$3,0*
0 Add four circle primitives for the rounded corners*
1,1,$1+$1,$2,$3*
1,1,$1+$1,$4,$5*
1,1,$1+$1,$6,$7*
1,1,$1+$1,$8,$9*
0 Add four rect primitives between the rounded corners*
20,1,$1+$1,$2,$3,$4,$5,0*
20,1,$1+$1,$4,$5,$6,$7,0*
20,1,$1+$1,$6,$7,$8,$9,0*
20,1,$1+$1,$8,$9,$2,$3,0*%
G04 Aperture macros list end*
%TA.AperFunction,ComponentPad*%
%ADD10C,1.400000*%
%TD*%
%TA.AperFunction,ComponentPad*%
%ADD11R,1.208000X1.208000*%
%TD*%
%TA.AperFunction,ComponentPad*%
%ADD12C,1.208000*%
%TD*%
%TA.AperFunction,ComponentPad*%
%ADD13R,1.700000X1.700000*%
%TD*%
%TA.AperFunction,ComponentPad*%
%ADD14C,1.700000*%
%TD*%
%TA.AperFunction,ComponentPad*%
%ADD15C,1.348000*%
%TD*%
%TA.AperFunction,ComponentPad*%
%ADD16C,1.676400*%
%TD*%
%TA.AperFunction,ComponentPad*%
%ADD17O,1.320800X2.641600*%
%TD*%
%TA.AperFunction,ComponentPad*%
%ADD18RoundRect,0.250000X0.625000X-0.350000X0.625000X0.350000X-0.625000X0.350000X-0.625000X-0.350000X0*%
%TD*%
%TA.AperFunction,ComponentPad*%
%ADD19O,1.750000X1.200000*%
%TD*%
%TA.AperFunction,ViaPad*%
%ADD20C,1.400000*%
%TD*%
%TA.AperFunction,Conductor*%
%ADD21C,0.200000*%
%TD*%
G04 APERTURE END LIST*
D10*
%TO.P,R4,1*%
%TO.N,N/C*%
X132338900Y-71354000D03*
%TO.P,R4,2*%
X132338900Y-76434000D03*
%TD*%
%TO.P,R3,1*%
%TO.N,N/C*%
X134903600Y-76450100D03*
%TO.P,R3,2*%
X134903600Y-71370100D03*
%TD*%
%TO.P,R1,2*%
%TO.N,N/C*%
X130038300Y-71378000D03*
%TO.P,R1,1*%
X130038300Y-76458000D03*
%TD*%
D11*
%TO.P,D3,A*%
%TO.N,N/C*%
X138559400Y-52976000D03*
D12*
%TO.P,D3,C*%
X141099400Y-52976000D03*
%TD*%
D11*
%TO.P,D2,A*%
%TO.N,N/C*%
X138559400Y-47449000D03*
D12*
%TO.P,D2,C*%
X141099400Y-47449000D03*
%TD*%
D13*
%TO.P,J3,1,Pin_1*%
%TO.N,N/C*%
X137900900Y-72697300D03*
D14*
%TO.P,J3,2,Pin_2*%
X137900900Y-75237300D03*
%TD*%
D15*
%TO.P,U1,G,GND*%
%TO.N,N/C*%
X135659100Y-50700100D03*
%TO.P,U1,5V,5V*%
X135659100Y-48160100D03*
%TO.P,U1,7,GPIO7*%
X120419100Y-53240100D03*
%TO.P,U1,6,GPIO6*%
X120419100Y-50700100D03*
%TO.P,U1,9,GPIO9*%
X120419100Y-58320100D03*
%TO.P,U1,10,GPIO10*%
X120419100Y-60860100D03*
%TO.P,U1,8,GPIO8*%
X120419100Y-55780100D03*
%TO.P,U1,0,GPIO0*%
%TO.N,unconnected-(U1-GPIO0-Pad0)*%
X135659100Y-65940100D03*
%TO.P,U1,1,GPIO1*%
%TO.N,unconnected-(U1-GPIO1-Pad1)*%
X135659100Y-63400100D03*
%TO.P,U1,2,GPIO2*%
%TO.N,unconnected-(U1-GPIO2-Pad2)*%
X135659100Y-60860100D03*
%TO.P,U1,3,GPIO3*%
%TO.N,unconnected-(U1-GPIO3-Pad3)*%
X135659100Y-58320100D03*
%TO.P,U1,3.3,3V3*%
%TO.N,unconnected-(U1-3V3-Pad3.3)*%
X135659100Y-53240100D03*
%TO.P,U1,4,GPIO4*%
%TO.N,unconnected-(U1-GPIO4-Pad4)*%
X135659100Y-55780100D03*
%TO.P,U1,5,GPIO5*%
%TO.N,unconnected-(U1-GPIO5-Pad5)*%
X120419100Y-48160100D03*
%TO.P,U1,20,GPIO20*%
%TO.N,unconnected-(U1-GPIO20-Pad20)*%
X120419100Y-63400100D03*
%TO.P,U1,21,GPIO21*%
%TO.N,unconnected-(U1-GPIO21-Pad21)*%
X120419100Y-65940100D03*
%TD*%
D16*
%TO.P,Q1,2*%
%TO.N,N/C*%
X122059700Y-75276700D03*
%TO.P,Q1,3*%
X120789700Y-77181700D03*
%TO.P,Q1,1*%
X123329700Y-77181700D03*
%TD*%
D10*
%TO.P,R2,1*%
%TO.N,N/C*%
X134768400Y-79188300D03*
%TO.P,R2,2*%
X129688400Y-79188300D03*
%TD*%
D12*
%TO.P,D4,C*%
%TO.N,N/C*%
X141099400Y-58503000D03*
D11*
%TO.P,D4,A*%
X138559400Y-58503000D03*
%TD*%
D17*
%TO.P,D1,A*%
%TO.N,N/C*%
X126956000Y-71467800D03*
%TO.P,D1,C*%
X126956000Y-79087800D03*
%TD*%
D13*
%TO.P,J1,1,Pin_1*%
%TO.N,N/C*%
X120699000Y-72104800D03*
D14*
%TO.P,J1,2,Pin_2*%
X123239000Y-72104800D03*
%TD*%
D18*
%TO.P,J2,1,Pin_1*%
%TO.N,N/C*%
X140226700Y-65820300D03*
D19*
%TO.P,J2,2,Pin_2*%
X140226700Y-63820300D03*
%TD*%
D20*
%TO.N,*%
X123593895Y-68720273D03*
X137105080Y-79332220D03*
X132788304Y-78212858D03*
X136126771Y-68553353D03*
X139636944Y-70468513D03*
X140245246Y-61338530D03*
%TD*%
D21*
%TO.N,*%
X125993900Y-71120278D02*
X123593895Y-68720273D01*
X125993900Y-71467800D02*
X125993900Y-71120278D01*
X126956000Y-71467800D02*
X125993900Y-71467800D01*
X137394295Y-79043005D02*
X137105080Y-79332220D01*
X137394295Y-78266417D02*
X137394295Y-79043005D01*
X141630316Y-74030396D02*
X137394295Y-78266417D01*
X141630316Y-62723600D02*
X141630316Y-74030396D01*
X140245246Y-61338530D02*
X141630316Y-62723600D01*
X137394295Y-78266417D02*
X137394294Y-78266417D01*
X129096300Y-77181700D02*
X129402400Y-77487800D01*
X132063246Y-77487800D02*
X132788304Y-78212858D01*
X123329700Y-77181700D02*
X129096300Y-77181700D01*
X129402400Y-77487800D02*
X132063246Y-77487800D01*
X134903600Y-71370100D02*
X135422000Y-71370100D01*
X133629400Y-71518900D02*
X133629400Y-71147500D01*
X134903600Y-69776524D02*
X136126771Y-68553353D01*
X134903600Y-71370100D02*
X134903600Y-69776524D01*
X139636944Y-70961256D02*
X139636944Y-70468513D01*
X137900900Y-72697300D02*
X139636944Y-70961256D01*
X137653700Y-47449000D02*
X137653700Y-47562200D01*
X137653700Y-47562200D02*
X135785800Y-49430100D01*
X135785800Y-49430100D02*
X124229100Y-49430100D01*
X124229100Y-49430100D02*
X120419100Y-53240100D01*
X138559400Y-47449000D02*
X137653700Y-47449000D01*
X135422000Y-71370100D02*
X136749200Y-72697300D01*
X137900900Y-72697300D02*
X136749200Y-72697300D01*
X120419100Y-55780100D02*
X121689100Y-54510100D01*
X137900900Y-75237300D02*
X137347800Y-75237300D01*
X137347800Y-75237300D02*
X133629400Y-71518900D01*
X133629400Y-71147500D02*
X123342000Y-60860100D01*
X123342000Y-60860100D02*
X120419100Y-60860100D01*
X121689100Y-54510100D02*
X136119600Y-54510100D01*
X126139600Y-75276700D02*
X130038300Y-71378000D01*
X136119600Y-54510100D02*
X137653700Y-52976000D01*
X122059700Y-75276700D02*
X126139600Y-75276700D01*
X138559400Y-52976000D02*
X137653700Y-52976000D01*
%TD*%
M02*
