%TF.GenerationSoftware,KiCad,Pcbnew,9.0.3*%
%TF.CreationDate,2026-03-31T18:27:18+01:00*%
%TF.ProjectId,tuxtag-pcb,74757874-6167-42d7-9063-622e6b696361,rev?*%
%TF.SameCoordinates,Original*%
%TF.FileFunction,Copper,L1,Top*%
%TF.FilePolarity,Positive*%
%FSLAX46Y46*%
G04 Gerber Fmt 4.6, Leading zero omitted, Abs format (unit mm)*
G04 Created by KiCad (PCBNEW 9.0.3) date 2026-03-31 18:27:18*
%MOMM*%
%LPD*%
G01*
G04 APERTURE LIST*
G04 Aperture macros list*
%AMRoundRect*
0 Rectangle with rounded corners*
0 $1 Rounding radius*
0 $2 $3 $4 $5 $6 $7 $8 $9 X,Y pos of 4 corners*
0 Add a 4 corners polygon primitive as box body*
4,1,4,$2,$3,$4,$5,$6,$7,$8,$9,$2,$3,0*
0 Add four circle primitives for the rounded corners*
1,1,$1+$1,$2,$3*
1,1,$1+$1,$4,$5*
1,1,$1+$1,$6,$7*
1,1,$1+$1,$8,$9*
0 Add four rect primitives between the rounded corners*
20,1,$1+$1,$2,$3,$4,$5,0*
20,1,$1+$1,$4,$5,$6,$7,0*
20,1,$1+$1,$6,$7,$8,$9,0*
20,1,$1+$1,$8,$9,$2,$3,0*%
G04 Aperture macros list end*
%TA.AperFunction,ComponentPad*%
%ADD10R,1.208000X1.208000*%
%TD*%
%TA.AperFunction,ComponentPad*%
%ADD11C,1.208000*%
%TD*%
%TA.AperFunction,ComponentPad*%
%ADD12R,1.700000X1.700000*%
%TD*%
%TA.AperFunction,ComponentPad*%
%ADD13C,1.700000*%
%TD*%
%TA.AperFunction,ComponentPad*%
%ADD14C,1.348000*%
%TD*%
%TA.AperFunction,ComponentPad*%
%ADD15RoundRect,0.250000X0.625000X-0.350000X0.625000X0.350000X-0.625000X0.350000X-0.625000X-0.350000X0*%
%TD*%
%TA.AperFunction,ComponentPad*%
%ADD16O,1.750000X1.200000*%
%TD*%
%TA.AperFunction,ComponentPad*%
%ADD17C,1.400000*%
%TD*%
%TA.AperFunction,ComponentPad*%
%ADD18C,1.676400*%
%TD*%
%TA.AperFunction,ComponentPad*%
%ADD19O,1.320800X2.641600*%
%TD*%
%TA.AperFunction,Conductor*%
%ADD20C,0.200000*%
%TD*%
G04 APERTURE END LIST*
D10*
%TO.P,D3,A*%
%TO.N,Net-(U1-GPIO8)*%
X138559400Y-52976000D03*
D11*
%TO.P,D3,C*%
%TO.N,Net-(D3-PadC)*%
X141099400Y-52976000D03*
%TD*%
D10*
%TO.P,D2,A*%
%TO.N,Net-(U1-GPIO7)*%
X138559400Y-47449000D03*
D11*
%TO.P,D2,C*%
%TO.N,Net-(D2-PadC)*%
X141099400Y-47449000D03*
%TD*%
D12*
%TO.P,J3,1,Pin_1*%
%TO.N,Net-(J2-Pin_1)*%
X137900900Y-72697300D03*
D13*
%TO.P,J3,2,Pin_2*%
%TO.N,Net-(J3-Pin_2)*%
X137900900Y-75237300D03*
%TD*%
D14*
%TO.P,U1,0,GPIO0*%
%TO.N,unconnected-(U1-GPIO0-Pad0)*%
X135659100Y-65940100D03*
%TO.P,U1,1,GPIO1*%
%TO.N,unconnected-(U1-GPIO1-Pad1)*%
X135659100Y-63400100D03*
%TO.P,U1,2,GPIO2*%
%TO.N,unconnected-(U1-GPIO2-Pad2)*%
X135659100Y-60860100D03*
%TO.P,U1,3,GPIO3*%
%TO.N,unconnected-(U1-GPIO3-Pad3)*%
X135659100Y-58320100D03*
%TO.P,U1,3.3,3V3*%
%TO.N,unconnected-(U1-3V3-Pad3.3)*%
X135659100Y-53240100D03*
%TO.P,U1,4,GPIO4*%
%TO.N,unconnected-(U1-GPIO4-Pad4)*%
X135659100Y-55780100D03*
%TO.P,U1,5,GPIO5*%
%TO.N,unconnected-(U1-GPIO5-Pad5)*%
X120419100Y-48160100D03*
%TO.P,U1,5V,5V*%
%TO.N,Net-(J1-Pin_2)*%
X135659100Y-48160100D03*
%TO.P,U1,6,GPIO6*%
%TO.N,Net-(U1-GPIO6)*%
X120419100Y-50700100D03*
%TO.P,U1,7,GPIO7*%
%TO.N,Net-(U1-GPIO7)*%
X120419100Y-53240100D03*
%TO.P,U1,8,GPIO8*%
%TO.N,Net-(U1-GPIO8)*%
X120419100Y-55780100D03*
%TO.P,U1,9,GPIO9*%
%TO.N,Net-(U1-GPIO9)*%
X120419100Y-58320100D03*
%TO.P,U1,10,GPIO10*%
%TO.N,Net-(J3-Pin_2)*%
X120419100Y-60860100D03*
%TO.P,U1,20,GPIO20*%
%TO.N,unconnected-(U1-GPIO20-Pad20)*%
X120419100Y-63400100D03*
%TO.P,U1,21,GPIO21*%
%TO.N,unconnected-(U1-GPIO21-Pad21)*%
X120419100Y-65940100D03*
%TO.P,U1,G,GND*%
%TO.N,Net-(J2-Pin_1)*%
X135659100Y-50700100D03*
%TD*%
D15*
%TO.P,J2,1,Pin_1*%
%TO.N,Net-(J2-Pin_1)*%
X140226700Y-65820300D03*
D16*
%TO.P,J2,2,Pin_2*%
%TO.N,Net-(J1-Pin_2)*%
X140226700Y-63820300D03*
%TD*%
D17*
%TO.P,R3,1*%
%TO.N,Net-(D3-PadC)*%
X134903600Y-76450100D03*
%TO.P,R3,2*%
%TO.N,Net-(J2-Pin_1)*%
X134903600Y-71370100D03*
%TD*%
D18*
%TO.P,Q1,1*%
%TO.N,Net-(J2-Pin_1)*%
X123329700Y-77181700D03*
%TO.P,Q1,2*%
%TO.N,Net-(Q1-Pad2)*%
X122059700Y-75276700D03*
%TO.P,Q1,3*%
%TO.N,Net-(J1-Pin_1)*%
X120789700Y-77181700D03*
%TD*%
D17*
%TO.P,R1,1*%
%TO.N,Net-(U1-GPIO9)*%
X130038300Y-76458000D03*
%TO.P,R1,2*%
%TO.N,Net-(Q1-Pad2)*%
X130038300Y-71378000D03*
%TD*%
%TO.P,R4,1*%
%TO.N,Net-(D2-PadC)*%
X132338900Y-71354000D03*
%TO.P,R4,2*%
%TO.N,Net-(J2-Pin_1)*%
X132338900Y-76434000D03*
%TD*%
%TO.P,R2,1*%
%TO.N,Net-(D4-PadA)*%
X134768400Y-79188300D03*
%TO.P,R2,2*%
%TO.N,Net-(U1-GPIO6)*%
X129688400Y-79188300D03*
%TD*%
D10*
%TO.P,D4,A*%
%TO.N,Net-(D4-PadA)*%
X138559400Y-58503000D03*
D11*
%TO.P,D4,C*%
%TO.N,Net-(J2-Pin_1)*%
X141099400Y-58503000D03*
%TD*%
D19*
%TO.P,D1,A*%
%TO.N,Net-(J1-Pin_1)*%
X126956000Y-71467800D03*
%TO.P,D1,C*%
%TO.N,Net-(J1-Pin_2)*%
X126956000Y-79087800D03*
%TD*%
D12*
%TO.P,J1,1,Pin_1*%
%TO.N,Net-(J1-Pin_1)*%
X120699000Y-72104800D03*
D13*
%TO.P,J1,2,Pin_2*%
%TO.N,Net-(J1-Pin_2)*%
X123239000Y-72104800D03*
%TD*%
D20*
%TO.N,Net-(J1-Pin_1)*%
X120789700Y-77181700D02*
X120789700Y-73347200D01*
X120699000Y-72104800D02*
X120699000Y-73256500D01*
X120789700Y-73347200D02*
X120699000Y-73256500D01*
%TO.N,Net-(J1-Pin_2)*%
X139970700Y-62662600D02*
X140226700Y-62918600D01*
X139970700Y-52471700D02*
X139970700Y-62662600D01*
X126956000Y-79087800D02*
X126956000Y-75821800D01*
X126956000Y-75821800D02*
X123239000Y-72104800D01*
X140226700Y-63820300D02*
X140226700Y-62918600D01*
X135659100Y-48160100D02*
X139970700Y-52471700D01*
%TO.N,Net-(J2-Pin_1)*%
X134679000Y-71145500D02*
X134903600Y-71370100D01*
X134679000Y-51680200D02*
X134679000Y-71145500D01*
X141408400Y-58812000D02*
X141099400Y-58503000D01*
X137900900Y-72697300D02*
X137900900Y-71545600D01*
X140226700Y-65820300D02*
X141408400Y-64638600D01*
X132338900Y-73934800D02*
X134903600Y-71370100D01*
X132338900Y-76434000D02*
X132338900Y-73934800D01*
X141408400Y-64638600D02*
X141408400Y-58812000D01*
X140226700Y-69219800D02*
X137900900Y-71545600D01*
X140226700Y-65820300D02*
X140226700Y-69219800D01*
X135659100Y-50700100D02*
X134679000Y-51680200D01*
%TO.N,Net-(U1-GPIO6)*%
X131044400Y-61325400D02*
X120419100Y-50700100D01*
X131044400Y-77832300D02*
X131044400Y-61325400D01*
X129688400Y-79188300D02*
X131044400Y-77832300D01*
%TO.N,Net-(U1-GPIO9)*%
X128192300Y-74612000D02*
X130038300Y-76458000D01*
X120419100Y-58320100D02*
X128192200Y-66093200D01*
X128192200Y-66093200D02*
X128192200Y-74612000D01*
X128192200Y-74612000D02*
X128192300Y-74612000D01*
%TO.N,Net-(D2-PadC)*%
X140193700Y-46543300D02*
X141099400Y-47449000D01*
X132338900Y-71354000D02*
X132338900Y-50091700D01*
X132338900Y-50091700D02*
X135887300Y-46543300D01*
X135887300Y-46543300D02*
X140193700Y-46543300D01*
%TO.N,Net-(D3-PadC)*%
X137386400Y-73967300D02*
X134903600Y-76450100D01*
X138806600Y-73967300D02*
X137386400Y-73967300D01*
X142006400Y-70767500D02*
X138806600Y-73967300D01*
X142006400Y-53883000D02*
X142006400Y-70767500D01*
X141099400Y-52976000D02*
X142006400Y-53883000D01*
%TO.N,Net-(D4-PadA)*%
X133893200Y-78313100D02*
X134768400Y-79188300D01*
X138559400Y-58503000D02*
X138559400Y-59408700D01*
X138559400Y-69131000D02*
X133893200Y-73797200D01*
X133893200Y-73797200D02*
X133893200Y-78313100D01*
X138559400Y-59408700D02*
X138559400Y-69131000D01*
%TD*%
M02*
