%TF.GenerationSoftware,KiCad,Pcbnew,9.0.3*%
%TF.CreationDate,2026-03-09T17:50:39+01:00*%
%TF.ProjectId,tuxtag-pcb,74757874-6167-42d7-9063-622e6b696361,rev?*%
%TF.SameCoordinates,Original*%
%TF.FileFunction,Legend,Top*%
%TF.FilePolarity,Positive*%
%FSLAX46Y46*%
G04 Gerber Fmt 4.6, Leading zero omitted, Abs format (unit mm)*
G04 Created by KiCad (PCBNEW 9.0.3) date 2026-03-09 17:50:39*
%MOMM*%
%LPD*%
G01*
G04 APERTURE LIST*
%ADD10C,0.300000*%
%ADD11C,0.150000*%
%ADD12C,0.203200*%
%ADD13C,0.127000*%
%ADD14C,0.120000*%
%ADD15C,0.152400*%
%ADD16C,0.010000*%
G04 APERTURE END LIST*
D10*
X141162897Y-44757812D02*
X142305755Y-44757812D01*
X137885778Y-44784673D02*
X139028636Y-44784673D01*
X138457207Y-45356101D02*
X138457207Y-44213244D01*
X139658645Y-72613322D02*
X140801503Y-72613322D01*
X139685507Y-75380070D02*
X140828365Y-75380070D01*
X140256936Y-75951498D02*
X140256936Y-74808641D01*
X137563438Y-65951638D02*
X138706296Y-65951638D01*
X137832055Y-63775846D02*
X138974913Y-63775846D01*
X138403484Y-64347274D02*
X138403484Y-63204417D01*
X120166780Y-73743135D02*
X121309638Y-73743135D01*
X122685804Y-73743135D02*
X123828662Y-73743135D01*
X123257233Y-74314563D02*
X123257233Y-73171706D01*
D11*
X127707735Y-76476045D02*
X127631420Y-76437887D01*
X127631420Y-76437887D02*
X127555105Y-76361573D01*
X127555105Y-76361573D02*
X127440632Y-76247100D01*
X127440632Y-76247100D02*
X127364317Y-76208943D01*
X127364317Y-76208943D02*
X127288002Y-76208943D01*
X127326160Y-76399730D02*
X127249845Y-76361573D01*
X127249845Y-76361573D02*
X127173530Y-76285258D01*
X127173530Y-76285258D02*
X127135372Y-76132628D01*
X127135372Y-76132628D02*
X127135372Y-75865525D01*
X127135372Y-75865525D02*
X127173530Y-75712895D01*
X127173530Y-75712895D02*
X127249845Y-75636580D01*
X127249845Y-75636580D02*
X127326160Y-75598423D01*
X127326160Y-75598423D02*
X127478790Y-75598423D01*
X127478790Y-75598423D02*
X127555105Y-75636580D01*
X127555105Y-75636580D02*
X127631420Y-75712895D01*
X127631420Y-75712895D02*
X127669577Y-75865525D01*
X127669577Y-75865525D02*
X127669577Y-76132628D01*
X127669577Y-76132628D02*
X127631420Y-76285258D01*
X127631420Y-76285258D02*
X127555105Y-76361573D01*
X127555105Y-76361573D02*
X127478790Y-76399730D01*
X127478790Y-76399730D02*
X127326160Y-76399730D01*
X128432726Y-76399730D02*
X127974836Y-76399730D01*
X128203781Y-76399730D02*
X128203781Y-75598423D01*
X128203781Y-75598423D02*
X128127466Y-75712895D01*
X128127466Y-75712895D02*
X128051151Y-75789210D01*
X128051151Y-75789210D02*
X127974836Y-75827368D01*
X121562195Y-43862419D02*
X121562195Y-44671942D01*
X121562195Y-44671942D02*
X121609814Y-44767180D01*
X121609814Y-44767180D02*
X121657433Y-44814800D01*
X121657433Y-44814800D02*
X121752671Y-44862419D01*
X121752671Y-44862419D02*
X121943147Y-44862419D01*
X121943147Y-44862419D02*
X122038385Y-44814800D01*
X122038385Y-44814800D02*
X122086004Y-44767180D01*
X122086004Y-44767180D02*
X122133623Y-44671942D01*
X122133623Y-44671942D02*
X122133623Y-43862419D01*
X123133623Y-44862419D02*
X122562195Y-44862419D01*
X122847909Y-44862419D02*
X122847909Y-43862419D01*
X122847909Y-43862419D02*
X122752671Y-44005276D01*
X122752671Y-44005276D02*
X122657433Y-44100514D01*
X122657433Y-44100514D02*
X122562195Y-44148133D01*
X128573119Y-74084666D02*
X128096928Y-74417999D01*
X128573119Y-74656094D02*
X127573119Y-74656094D01*
X127573119Y-74656094D02*
X127573119Y-74275142D01*
X127573119Y-74275142D02*
X127620738Y-74179904D01*
X127620738Y-74179904D02*
X127668357Y-74132285D01*
X127668357Y-74132285D02*
X127763595Y-74084666D01*
X127763595Y-74084666D02*
X127906452Y-74084666D01*
X127906452Y-74084666D02*
X128001690Y-74132285D01*
X128001690Y-74132285D02*
X128049309Y-74179904D01*
X128049309Y-74179904D02*
X128096928Y-74275142D01*
X128096928Y-74275142D02*
X128096928Y-74656094D01*
X128573119Y-73132285D02*
X128573119Y-73703713D01*
X128573119Y-73417999D02*
X127573119Y-73417999D01*
X127573119Y-73417999D02*
X127715976Y-73513237D01*
X127715976Y-73513237D02*
X127811214Y-73608475D01*
X127811214Y-73608475D02*
X127858833Y-73703713D01*
X137567566Y-69772119D02*
X137567566Y-70486404D01*
X137567566Y-70486404D02*
X137519947Y-70629261D01*
X137519947Y-70629261D02*
X137424709Y-70724500D01*
X137424709Y-70724500D02*
X137281852Y-70772119D01*
X137281852Y-70772119D02*
X137186614Y-70772119D01*
X137948519Y-69772119D02*
X138567566Y-69772119D01*
X138567566Y-69772119D02*
X138234233Y-70153071D01*
X138234233Y-70153071D02*
X138377090Y-70153071D01*
X138377090Y-70153071D02*
X138472328Y-70200690D01*
X138472328Y-70200690D02*
X138519947Y-70248309D01*
X138519947Y-70248309D02*
X138567566Y-70343547D01*
X138567566Y-70343547D02*
X138567566Y-70581642D01*
X138567566Y-70581642D02*
X138519947Y-70676880D01*
X138519947Y-70676880D02*
X138472328Y-70724500D01*
X138472328Y-70724500D02*
X138377090Y-70772119D01*
X138377090Y-70772119D02*
X138091376Y-70772119D01*
X138091376Y-70772119D02*
X137996138Y-70724500D01*
X137996138Y-70724500D02*
X137948519Y-70676880D01*
X137131519Y-65153633D02*
X137845804Y-65153633D01*
X137845804Y-65153633D02*
X137988661Y-65201252D01*
X137988661Y-65201252D02*
X138083900Y-65296490D01*
X138083900Y-65296490D02*
X138131519Y-65439347D01*
X138131519Y-65439347D02*
X138131519Y-65534585D01*
X137226757Y-64725061D02*
X137179138Y-64677442D01*
X137179138Y-64677442D02*
X137131519Y-64582204D01*
X137131519Y-64582204D02*
X137131519Y-64344109D01*
X137131519Y-64344109D02*
X137179138Y-64248871D01*
X137179138Y-64248871D02*
X137226757Y-64201252D01*
X137226757Y-64201252D02*
X137321995Y-64153633D01*
X137321995Y-64153633D02*
X137417233Y-64153633D01*
X137417233Y-64153633D02*
X137560090Y-64201252D01*
X137560090Y-64201252D02*
X138131519Y-64772680D01*
X138131519Y-64772680D02*
X138131519Y-64153633D01*
X117773819Y-72438133D02*
X118488104Y-72438133D01*
X118488104Y-72438133D02*
X118630961Y-72485752D01*
X118630961Y-72485752D02*
X118726200Y-72580990D01*
X118726200Y-72580990D02*
X118773819Y-72723847D01*
X118773819Y-72723847D02*
X118773819Y-72819085D01*
X118773819Y-71438133D02*
X118773819Y-72009561D01*
X118773819Y-71723847D02*
X117773819Y-71723847D01*
X117773819Y-71723847D02*
X117916676Y-71819085D01*
X117916676Y-71819085D02*
X118011914Y-71914323D01*
X118011914Y-71914323D02*
X118059533Y-72009561D01*
X139465792Y-56019391D02*
X139465792Y-55018005D01*
X139465792Y-55018005D02*
X139704217Y-55018005D01*
X139704217Y-55018005D02*
X139847272Y-55065690D01*
X139847272Y-55065690D02*
X139942642Y-55161060D01*
X139942642Y-55161060D02*
X139990327Y-55256430D01*
X139990327Y-55256430D02*
X140038012Y-55447170D01*
X140038012Y-55447170D02*
X140038012Y-55590225D01*
X140038012Y-55590225D02*
X139990327Y-55780965D01*
X139990327Y-55780965D02*
X139942642Y-55876335D01*
X139942642Y-55876335D02*
X139847272Y-55971706D01*
X139847272Y-55971706D02*
X139704217Y-56019391D01*
X139704217Y-56019391D02*
X139465792Y-56019391D01*
X140896343Y-55351800D02*
X140896343Y-56019391D01*
X140657918Y-54970320D02*
X140419493Y-55685595D01*
X140419493Y-55685595D02*
X141039398Y-55685595D01*
X139465792Y-50492391D02*
X139465792Y-49491005D01*
X139465792Y-49491005D02*
X139704217Y-49491005D01*
X139704217Y-49491005D02*
X139847272Y-49538690D01*
X139847272Y-49538690D02*
X139942642Y-49634060D01*
X139942642Y-49634060D02*
X139990327Y-49729430D01*
X139990327Y-49729430D02*
X140038012Y-49920170D01*
X140038012Y-49920170D02*
X140038012Y-50063225D01*
X140038012Y-50063225D02*
X139990327Y-50253965D01*
X139990327Y-50253965D02*
X139942642Y-50349335D01*
X139942642Y-50349335D02*
X139847272Y-50444706D01*
X139847272Y-50444706D02*
X139704217Y-50492391D01*
X139704217Y-50492391D02*
X139465792Y-50492391D01*
X140371808Y-49491005D02*
X140991713Y-49491005D01*
X140991713Y-49491005D02*
X140657918Y-49872485D01*
X140657918Y-49872485D02*
X140800973Y-49872485D01*
X140800973Y-49872485D02*
X140896343Y-49920170D01*
X140896343Y-49920170D02*
X140944028Y-49967855D01*
X140944028Y-49967855D02*
X140991713Y-50063225D01*
X140991713Y-50063225D02*
X140991713Y-50301650D01*
X140991713Y-50301650D02*
X140944028Y-50397020D01*
X140944028Y-50397020D02*
X140896343Y-50444706D01*
X140896343Y-50444706D02*
X140800973Y-50492391D01*
X140800973Y-50492391D02*
X140514863Y-50492391D01*
X140514863Y-50492391D02*
X140419493Y-50444706D01*
X140419493Y-50444706D02*
X140371808Y-50397020D01*
X139465792Y-44965391D02*
X139465792Y-43964005D01*
X139465792Y-43964005D02*
X139704217Y-43964005D01*
X139704217Y-43964005D02*
X139847272Y-44011690D01*
X139847272Y-44011690D02*
X139942642Y-44107060D01*
X139942642Y-44107060D02*
X139990327Y-44202430D01*
X139990327Y-44202430D02*
X140038012Y-44393170D01*
X140038012Y-44393170D02*
X140038012Y-44536225D01*
X140038012Y-44536225D02*
X139990327Y-44726965D01*
X139990327Y-44726965D02*
X139942642Y-44822335D01*
X139942642Y-44822335D02*
X139847272Y-44917706D01*
X139847272Y-44917706D02*
X139704217Y-44965391D01*
X139704217Y-44965391D02*
X139465792Y-44965391D01*
X140419493Y-44059375D02*
X140467178Y-44011690D01*
X140467178Y-44011690D02*
X140562548Y-43964005D01*
X140562548Y-43964005D02*
X140800973Y-43964005D01*
X140800973Y-43964005D02*
X140896343Y-44011690D01*
X140896343Y-44011690D02*
X140944028Y-44059375D01*
X140944028Y-44059375D02*
X140991713Y-44154745D01*
X140991713Y-44154745D02*
X140991713Y-44250115D01*
X140991713Y-44250115D02*
X140944028Y-44393170D01*
X140944028Y-44393170D02*
X140371808Y-44965391D01*
X140371808Y-44965391D02*
X140991713Y-44965391D01*
X125505819Y-75126894D02*
X124505819Y-75126894D01*
X124505819Y-75126894D02*
X124505819Y-74888799D01*
X124505819Y-74888799D02*
X124553438Y-74745942D01*
X124553438Y-74745942D02*
X124648676Y-74650704D01*
X124648676Y-74650704D02*
X124743914Y-74603085D01*
X124743914Y-74603085D02*
X124934390Y-74555466D01*
X124934390Y-74555466D02*
X125077247Y-74555466D01*
X125077247Y-74555466D02*
X125267723Y-74603085D01*
X125267723Y-74603085D02*
X125362961Y-74650704D01*
X125362961Y-74650704D02*
X125458200Y-74745942D01*
X125458200Y-74745942D02*
X125505819Y-74888799D01*
X125505819Y-74888799D02*
X125505819Y-75126894D01*
X125505819Y-73603085D02*
X125505819Y-74174513D01*
X125505819Y-73888799D02*
X124505819Y-73888799D01*
X124505819Y-73888799D02*
X124648676Y-73984037D01*
X124648676Y-73984037D02*
X124743914Y-74079275D01*
X124743914Y-74079275D02*
X124791533Y-74174513D01*
D12*
%TO.C,Q1*%
X119959700Y-78781700D02*
X124159700Y-78781700D01*
X119959700Y-78781700D02*
G75*
G02*
X120659700Y-74881700I2043401J1646056D01*
G01*
X123459700Y-74881700D02*
G75*
G02*
X124159700Y-78781700I-1292099J-2244736D01*
G01*
D13*
%TO.C,U1*%
X137039100Y-69410100D02*
X119039100Y-69410100D01*
X137039100Y-69410100D02*
X137039100Y-46710100D01*
X137039100Y-46710100D02*
X132539100Y-46710100D01*
X119039100Y-69410100D02*
X119039100Y-46710100D01*
X132539100Y-45410100D02*
X123539100Y-45410100D01*
X132539100Y-45410100D02*
X132539100Y-46710100D01*
X123539100Y-45410100D02*
X123539100Y-46710100D01*
X123539100Y-46710100D02*
X119039100Y-46710100D01*
D14*
%TO.C,R1*%
X129118300Y-75838000D02*
X129118300Y-71998000D01*
X130958300Y-75838000D02*
X130958300Y-71998000D01*
%TO.C,J3*%
X136520900Y-71317300D02*
X137900900Y-71317300D01*
X136520900Y-72697300D02*
X136520900Y-71317300D01*
X136520900Y-73967300D02*
X136520900Y-76617300D01*
X136520900Y-73967300D02*
X139280900Y-73967300D01*
X136520900Y-76617300D02*
X139280900Y-76617300D01*
X139280900Y-73967300D02*
X139280900Y-76617300D01*
%TO.C,J2*%
X138766700Y-67880300D02*
X146586700Y-67880300D01*
X140366700Y-67880300D02*
X140366700Y-66960300D01*
X146586700Y-67880300D02*
X146586700Y-61760300D01*
X142726700Y-67120300D02*
X144326700Y-67120300D01*
X144326700Y-67120300D02*
X144326700Y-66120300D01*
X138766700Y-66960300D02*
X138766700Y-67880300D01*
X140366700Y-66960300D02*
X138766700Y-66960300D01*
X140366700Y-66680300D02*
X140366700Y-66960300D01*
X140366700Y-66680300D02*
X139151700Y-66680300D01*
X144326700Y-66620300D02*
X146586700Y-66620300D01*
X142726700Y-66120300D02*
X142726700Y-67120300D01*
X144326700Y-66120300D02*
X142726700Y-66120300D01*
X144326700Y-66120300D02*
X146586700Y-66120300D01*
X142226700Y-65320300D02*
X142226700Y-64320300D01*
X146586700Y-65320300D02*
X142226700Y-65320300D01*
X142226700Y-64320300D02*
X146586700Y-64320300D01*
X142726700Y-63520300D02*
X142726700Y-62520300D01*
X144326700Y-63520300D02*
X142726700Y-63520300D01*
X138766700Y-62680300D02*
X140366700Y-62680300D01*
X140366700Y-62680300D02*
X140366700Y-62960300D01*
X142726700Y-62520300D02*
X144326700Y-62520300D01*
X144326700Y-62520300D02*
X144326700Y-63520300D01*
X138766700Y-61760300D02*
X138766700Y-62680300D01*
X140366700Y-61760300D02*
X140366700Y-62680300D01*
X146586700Y-61760300D02*
X138766700Y-61760300D01*
%TO.C,J1*%
X119319000Y-73484800D02*
X119319000Y-72104800D01*
X120699000Y-73484800D02*
X119319000Y-73484800D01*
X121969000Y-73484800D02*
X124619000Y-73484800D01*
X121969000Y-73484800D02*
X121969000Y-70724800D01*
X124619000Y-73484800D02*
X124619000Y-70724800D01*
X121969000Y-70724800D02*
X124619000Y-70724800D01*
D13*
%TO.C,D4*%
X138489400Y-57823000D02*
G75*
G02*
X141169400Y-57843000I1335337J-634852D01*
G01*
X141189400Y-59203000D02*
G75*
G02*
X138509400Y-59183000I-1335337J634852D01*
G01*
%TO.C,D3*%
X138489400Y-52296000D02*
G75*
G02*
X141169400Y-52316000I1335337J-634852D01*
G01*
X141189400Y-53676000D02*
G75*
G02*
X138509400Y-53656000I-1335337J634852D01*
G01*
%TO.C,D2*%
X138489400Y-46769000D02*
G75*
G02*
X141169400Y-46789000I1335337J-634852D01*
G01*
X141189400Y-48149000D02*
G75*
G02*
X138509400Y-48129000I-1335337J634852D01*
G01*
D15*
%TO.C,D1*%
X126956000Y-75912800D02*
X126956000Y-75277800D01*
X126321000Y-74261800D02*
X127591000Y-74261800D01*
X127591000Y-74261800D02*
X126956000Y-75277800D01*
X126956000Y-75277800D02*
X126956000Y-73753800D01*
X126956000Y-75277800D02*
X126321000Y-74261800D01*
X126321000Y-75277800D02*
X126956000Y-75277800D01*
X126956000Y-75277800D02*
X127591000Y-75277800D01*
X125940000Y-73245800D02*
G75*
G02*
X126194000Y-72991800I254000J0D01*
G01*
X126194000Y-72991800D02*
X127718000Y-72991800D01*
X127718000Y-72991800D02*
G75*
G02*
X127972000Y-73245800I0J-254000D01*
G01*
X126194000Y-77563800D02*
G75*
G02*
X125940000Y-77309800I0J254000D01*
G01*
X127972000Y-77309800D02*
G75*
G02*
X127718000Y-77563800I-254000J0D01*
G01*
X127972000Y-77309800D02*
X127972000Y-73245800D01*
X126194000Y-77563800D02*
X127718000Y-77563800D01*
X125940000Y-77309800D02*
X125940000Y-73245800D01*
D16*
X127972000Y-77182800D02*
X125940000Y-77182800D01*
X125940000Y-76674800D01*
X127972000Y-76674800D01*
X127972000Y-77182800D01*
G36*
X127972000Y-77182800D02*
G01*
X125940000Y-77182800D01*
X125940000Y-76674800D01*
X127972000Y-76674800D01*
X127972000Y-77182800D01*
G37*
X127210000Y-72991800D02*
X126702000Y-72991800D01*
X126702000Y-72356800D01*
X127210000Y-72356800D01*
X127210000Y-72991800D01*
G36*
X127210000Y-72991800D02*
G01*
X126702000Y-72991800D01*
X126702000Y-72356800D01*
X127210000Y-72356800D01*
X127210000Y-72991800D01*
G37*
X127210000Y-78198800D02*
X126702000Y-78198800D01*
X126702000Y-77563800D01*
X127210000Y-77563800D01*
X127210000Y-78198800D01*
G36*
X127210000Y-78198800D02*
G01*
X126702000Y-78198800D01*
X126702000Y-77563800D01*
X127210000Y-77563800D01*
X127210000Y-78198800D01*
G37*
%TD*%
M02*
