M48
; DRILL file {KiCad 9.0.3} date 2026-03-16T21:39:25+0100
; FORMAT={-:-/ absolute / metric / decimal}
; #@! TF.CreationDate,2026-03-16T21:39:25+01:00
; #@! TF.GenerationSoftware,Kicad,Pcbnew,9.0.3
; #@! TF.FileFunction,Plated,1,2,PTH
FMAT,2
METRIC
; #@! TA.AperFunction,Plated,PTH,ComponentDrill
T1C0.700
; #@! TA.AperFunction,Plated,PTH,ComponentDrill
T2C0.750
; #@! TA.AperFunction,Plated,PTH,ComponentDrill
T3C0.813
; #@! TA.AperFunction,Plated,PTH,ComponentDrill
T4C0.840
; #@! TA.AperFunction,Plated,PTH,ComponentDrill
T5C1.000
%
G90
G05
T1
X129.688Y-79.188
X130.038Y-71.378
X130.038Y-76.458
X132.339Y-71.354
X132.339Y-76.434
X134.768Y-79.188
X134.904Y-71.37
X134.904Y-76.45
X138.559Y-47.449
X138.559Y-52.976
X138.559Y-58.503
X141.099Y-47.449
X141.099Y-52.976
X141.099Y-58.503
T2
X140.227Y-63.82
X140.227Y-65.82
T3
X120.79Y-77.182
X122.06Y-75.277
X123.33Y-77.182
X126.956Y-71.468
X126.956Y-79.088
T4
X120.419Y-48.16
X120.419Y-50.7
X120.419Y-53.24
X120.419Y-55.78
X120.419Y-58.32
X120.419Y-60.86
X120.419Y-63.4
X120.419Y-65.94
X135.659Y-48.16
X135.659Y-50.7
X135.659Y-53.24
X135.659Y-55.78
X135.659Y-58.32
X135.659Y-60.86
X135.659Y-63.4
X135.659Y-65.94
T5
X120.699Y-72.105
X123.239Y-72.105
X137.901Y-72.697
X137.901Y-75.237
M30
