%TF.GenerationSoftware,KiCad,Pcbnew,9.0.3*%
%TF.CreationDate,2026-03-09T17:50:39+01:00*%
%TF.ProjectId,tuxtag-pcb,74757874-6167-42d7-9063-622e6b696361,rev?*%
%TF.SameCoordinates,Original*%
%TF.FileFunction,Copper,L1,Top*%
%TF.FilePolarity,Positive*%
%FSLAX46Y46*%
G04 Gerber Fmt 4.6, Leading zero omitted, Abs format (unit mm)*
G04 Created by KiCad (PCBNEW 9.0.3) date 2026-03-09 17:50:39*
%MOMM*%
%LPD*%
G01*
G04 APERTURE LIST*
G04 Aperture macros list*
%AMRoundRect*
0 Rectangle with rounded corners*
0 $1 Rounding radius*
0 $2 $3 $4 $5 $6 $7 $8 $9 X,Y pos of 4 corners*
0 Add a 4 corners polygon primitive as box body*
4,1,4,$2,$3,$4,$5,$6,$7,$8,$9,$2,$3,0*
0 Add four circle primitives for the rounded corners*
1,1,$1+$1,$2,$3*
1,1,$1+$1,$4,$5*
1,1,$1+$1,$6,$7*
1,1,$1+$1,$8,$9*
0 Add four rect primitives between the rounded corners*
20,1,$1+$1,$2,$3,$4,$5,0*
20,1,$1+$1,$4,$5,$6,$7,0*
20,1,$1+$1,$6,$7,$8,$9,0*
20,1,$1+$1,$8,$9,$2,$3,0*%
G04 Aperture macros list end*
%TA.AperFunction,ComponentPad*%
%ADD10C,1.676400*%
%TD*%
%TA.AperFunction,ComponentPad*%
%ADD11C,1.348000*%
%TD*%
%TA.AperFunction,ComponentPad*%
%ADD12C,1.400000*%
%TD*%
%TA.AperFunction,ComponentPad*%
%ADD13R,1.700000X1.700000*%
%TD*%
%TA.AperFunction,ComponentPad*%
%ADD14C,1.700000*%
%TD*%
%TA.AperFunction,ComponentPad*%
%ADD15RoundRect,0.250000X0.625000X-0.350000X0.625000X0.350000X-0.625000X0.350000X-0.625000X-0.350000X0*%
%TD*%
%TA.AperFunction,ComponentPad*%
%ADD16O,1.750000X1.200000*%
%TD*%
%TA.AperFunction,ComponentPad*%
%ADD17R,1.208000X1.208000*%
%TD*%
%TA.AperFunction,ComponentPad*%
%ADD18C,1.208000*%
%TD*%
%TA.AperFunction,ComponentPad*%
%ADD19O,1.320800X2.641600*%
%TD*%
%TA.AperFunction,Conductor*%
%ADD20C,0.200000*%
%TD*%
G04 APERTURE END LIST*
D10*
%TO.P,Q1,1*%
%TO.N,Net-(J2-Pin_1)*%
X123329700Y-77181700D03*
%TO.P,Q1,2*%
%TO.N,Net-(Q1-Pad2)*%
X122059700Y-75276700D03*
%TO.P,Q1,3*%
%TO.N,Net-(J1-Pin_1)*%
X120789700Y-77181700D03*
%TD*%
D11*
%TO.P,U1,5,GPIO5*%
%TO.N,unconnected-(U1-GPIO5-Pad5)*%
X120419100Y-48160100D03*
%TO.P,U1,6,GPIO6*%
%TO.N,Net-(U1-GPIO6)*%
X120419100Y-50700100D03*
%TO.P,U1,7,GPIO7*%
%TO.N,Net-(U1-GPIO7)*%
X120419100Y-53240100D03*
%TO.P,U1,8,GPIO8*%
%TO.N,Net-(U1-GPIO8)*%
X120419100Y-55780100D03*
%TO.P,U1,9,GPIO9*%
%TO.N,Net-(U1-GPIO9)*%
X120419100Y-58320100D03*
%TO.P,U1,10,GPIO10*%
%TO.N,Net-(J3-Pin_2)*%
X120419100Y-60860100D03*
%TO.P,U1,20,GPIO20*%
%TO.N,unconnected-(U1-GPIO20-Pad20)*%
X120419100Y-63400100D03*
%TO.P,U1,21,GPIO21*%
%TO.N,unconnected-(U1-GPIO21-Pad21)*%
X120419100Y-65940100D03*
%TO.P,U1,0,GPIO0*%
%TO.N,unconnected-(U1-GPIO0-Pad0)*%
X135659100Y-65940100D03*
%TO.P,U1,1,GPIO1*%
%TO.N,unconnected-(U1-GPIO1-Pad1)*%
X135659100Y-63400100D03*
%TO.P,U1,2,GPIO2*%
%TO.N,unconnected-(U1-GPIO2-Pad2)*%
X135659100Y-60860100D03*
%TO.P,U1,3,GPIO3*%
%TO.N,unconnected-(U1-GPIO3-Pad3)*%
X135659100Y-58320100D03*
%TO.P,U1,4,GPIO4*%
%TO.N,unconnected-(U1-GPIO4-Pad4)*%
X135659100Y-55780100D03*
%TO.P,U1,3.3,3V3*%
%TO.N,unconnected-(U1-3V3-Pad3.3)*%
X135659100Y-53240100D03*
%TO.P,U1,G,GND*%
%TO.N,Net-(J2-Pin_1)*%
X135659100Y-50700100D03*
%TO.P,U1,5V,5V*%
%TO.N,Net-(J1-Pin_2)*%
X135659100Y-48160100D03*
%TD*%
D12*
%TO.P,R1,1*%
%TO.N,Net-(U1-GPIO9)*%
X130038300Y-76458000D03*
%TO.P,R1,2*%
%TO.N,Net-(Q1-Pad2)*%
X130038300Y-71378000D03*
%TD*%
D13*
%TO.P,J3,1,Pin_1*%
%TO.N,Net-(J2-Pin_1)*%
X137900900Y-72697300D03*
D14*
%TO.P,J3,2,Pin_2*%
%TO.N,Net-(J3-Pin_2)*%
X137900900Y-75237300D03*
%TD*%
D15*
%TO.P,J2,1,Pin_1*%
%TO.N,Net-(J2-Pin_1)*%
X140226700Y-65820300D03*
D16*
%TO.P,J2,2,Pin_2*%
%TO.N,Net-(J1-Pin_2)*%
X140226700Y-63820300D03*
%TD*%
D13*
%TO.P,J1,1,Pin_1*%
%TO.N,Net-(J1-Pin_1)*%
X120699000Y-72104800D03*
D14*
%TO.P,J1,2,Pin_2*%
%TO.N,Net-(J1-Pin_2)*%
X123239000Y-72104800D03*
%TD*%
D17*
%TO.P,D4,A*%
%TO.N,Net-(U1-GPIO6)*%
X138559400Y-58503000D03*
D18*
%TO.P,D4,C*%
%TO.N,Net-(J2-Pin_1)*%
X141099400Y-58503000D03*
%TD*%
D17*
%TO.P,D3,A*%
%TO.N,Net-(U1-GPIO8)*%
X138559400Y-52976000D03*
D18*
%TO.P,D3,C*%
%TO.N,Net-(J2-Pin_1)*%
X141099400Y-52976000D03*
%TD*%
D17*
%TO.P,D2,A*%
%TO.N,Net-(U1-GPIO7)*%
X138559400Y-47449000D03*
D18*
%TO.P,D2,C*%
%TO.N,Net-(J2-Pin_1)*%
X141099400Y-47449000D03*
%TD*%
D19*
%TO.P,D1,C*%
%TO.N,Net-(J1-Pin_2)*%
X126956000Y-79087800D03*
%TO.P,D1,A*%
%TO.N,Net-(J1-Pin_1)*%
X126956000Y-71467800D03*
%TD*%
D20*
%TO.N,Net-(U1-GPIO9)*%
X129874900Y-76458000D02*
X130038300Y-76458000D01*
X125219900Y-71803000D02*
X129874900Y-76458000D01*
X125219900Y-63120900D02*
X125219900Y-71803000D01*
X120419100Y-58320100D02*
X125219900Y-63120900D01*
%TO.N,Net-(J2-Pin_1)*%
X141099400Y-58503000D02*
X141099400Y-52976000D01*
X137900900Y-72697300D02*
X137900900Y-71545600D01*
X141099400Y-47449000D02*
X141099400Y-52976000D01*
X140226700Y-69219800D02*
X140226700Y-65820300D01*
X137900900Y-71545600D02*
X140226700Y-69219800D01*
X141474300Y-58877900D02*
X141099400Y-58503000D01*
X141474300Y-64572700D02*
X141474300Y-58877900D01*
X140226700Y-65820300D02*
X141474300Y-64572700D01*
%TO.N,Net-(J1-Pin_2)*%
X140226700Y-63820300D02*
X140226700Y-62918600D01*
X126956000Y-78748400D02*
X126956000Y-79087800D01*
X139578100Y-62270000D02*
X140226700Y-62918600D01*
X139578100Y-52079100D02*
X139578100Y-62270000D01*
X135659100Y-48160100D02*
X139578100Y-52079100D01*
X126956000Y-75821800D02*
X126956000Y-77468000D01*
X123239000Y-72104800D02*
X126956000Y-75821800D01*
X126956000Y-77468000D02*
X126956000Y-78748400D01*
X137694700Y-65450600D02*
X140226700Y-62918600D01*
X137694700Y-70253600D02*
X137694700Y-65450600D01*
X130480300Y-77468000D02*
X137694700Y-70253600D01*
X126956000Y-77468000D02*
X130480300Y-77468000D01*
%TO.N,Net-(J1-Pin_1)*%
X120699000Y-77091000D02*
X120789700Y-77181700D01*
X120699000Y-72104800D02*
X120699000Y-77091000D01*
%TD*%
M02*
