%TF.GenerationSoftware,KiCad,Pcbnew,9.0.3*%
%TF.CreationDate,2026-04-02T18:02:35+01:00*%
%TF.ProjectId,tuxtag-pcb,74757874-6167-42d7-9063-622e6b696361,rev?*%
%TF.SameCoordinates,Original*%
%TF.FileFunction,Soldermask,Top*%
%TF.FilePolarity,Negative*%
%FSLAX46Y46*%
G04 Gerber Fmt 4.6, Leading zero omitted, Abs format (unit mm)*
G04 Created by KiCad (PCBNEW 9.0.3) date 2026-04-02 18:02:35*
%MOMM*%
%LPD*%
G01*
G04 APERTURE LIST*
G04 Aperture macros list*
%AMRoundRect*
0 Rectangle with rounded corners*
0 $1 Rounding radius*
0 $2 $3 $4 $5 $6 $7 $8 $9 X,Y pos of 4 corners*
0 Add a 4 corners polygon primitive as box body*
4,1,4,$2,$3,$4,$5,$6,$7,$8,$9,$2,$3,0*
0 Add four circle primitives for the rounded corners*
1,1,$1+$1,$2,$3*
1,1,$1+$1,$4,$5*
1,1,$1+$1,$6,$7*
1,1,$1+$1,$8,$9*
0 Add four rect primitives between the rounded corners*
20,1,$1+$1,$2,$3,$4,$5,0*
20,1,$1+$1,$4,$5,$6,$7,0*
20,1,$1+$1,$6,$7,$8,$9,0*
20,1,$1+$1,$8,$9,$2,$3,0*%
G04 Aperture macros list end*
%ADD10C,1.400000*%
%ADD11RoundRect,0.102000X-0.604000X-0.604000X0.604000X-0.604000X0.604000X0.604000X-0.604000X0.604000X0*%
%ADD12C,1.412000*%
%ADD13R,1.700000X1.700000*%
%ADD14C,1.700000*%
%ADD15C,1.552000*%
%ADD16C,1.880400*%
%ADD17O,1.524800X2.845600*%
%ADD18RoundRect,0.250000X0.625000X-0.350000X0.625000X0.350000X-0.625000X0.350000X-0.625000X-0.350000X0*%
%ADD19O,1.750000X1.200000*%
G04 APERTURE END LIST*
D10*
%TO.C,R4*%
X132338900Y-71354000D03*
X132338900Y-76434000D03*
%TD*%
%TO.C,R3*%
X134903600Y-76450100D03*
X134903600Y-71370100D03*
%TD*%
%TO.C,R1*%
X130038300Y-71378000D03*
X130038300Y-76458000D03*
%TD*%
D11*
%TO.C,D3*%
X138559400Y-52976000D03*
D12*
X141099400Y-52976000D03*
%TD*%
D11*
%TO.C,D2*%
X138559400Y-47449000D03*
D12*
X141099400Y-47449000D03*
%TD*%
D13*
%TO.C,J3*%
X137900900Y-72697300D03*
D14*
X137900900Y-75237300D03*
%TD*%
D15*
%TO.C,U1*%
X135659100Y-50700100D03*
X135659100Y-48160100D03*
X120419100Y-53240100D03*
X120419100Y-50700100D03*
X120419100Y-58320100D03*
X120419100Y-60860100D03*
X120419100Y-55780100D03*
X135659100Y-65940100D03*
X135659100Y-63400100D03*
X135659100Y-60860100D03*
X135659100Y-58320100D03*
X135659100Y-53240100D03*
X135659100Y-55780100D03*
X120419100Y-48160100D03*
X120419100Y-63400100D03*
X120419100Y-65940100D03*
%TD*%
D16*
%TO.C,Q1*%
X122059700Y-75276700D03*
X120789700Y-77181700D03*
X123329700Y-77181700D03*
%TD*%
D10*
%TO.C,R2*%
X134768400Y-79188300D03*
X129688400Y-79188300D03*
%TD*%
D12*
%TO.C,D4*%
X141099400Y-58503000D03*
D11*
X138559400Y-58503000D03*
%TD*%
D17*
%TO.C,D1*%
X126956000Y-71467800D03*
X126956000Y-79087800D03*
%TD*%
D13*
%TO.C,J1*%
X120699000Y-72104800D03*
D14*
X123239000Y-72104800D03*
%TD*%
D18*
%TO.C,J2*%
X140226700Y-65820300D03*
D19*
X140226700Y-63820300D03*
%TD*%
M02*
